<svg width="17" height="16" viewBox="0 0 17 16" fill="none" xmlns="http://www.w3.org/2000/svg">
<path d="M8.01172 0C3.59376 0 0.0117188 3.58204 0.0117188 8C0.0117188 12.418 3.59376 16 8.01172 16C12.4297 16 16.0117 12.418 16.0117 8C16.0117 3.58204 12.4297 0 8.01172 0ZM8.01172 14.4C4.48356 14.4 1.61172 11.5282 1.61172 8C1.61172 4.4702 4.48356 1.6 8.01172 1.6C11.5415 1.6 14.4117 4.47184 14.4117 8C14.4117 11.5298 11.5415 14.4 8.01172 14.4Z" fill="#3398E6"/>
<path d="M8.01328 5.60007C8.4541 5.60007 8.81328 5.95926 8.81328 6.40007H10.4133C10.4133 5.35844 9.74226 4.48007 8.81328 4.14701V3.20007H7.21328V4.14701C6.2843 4.47844 5.61328 5.35844 5.61328 6.40007C5.61328 7.72252 6.69083 8.80007 8.01328 8.80007C8.4541 8.80007 8.81328 9.15926 8.81328 9.60007C8.81328 10.0409 8.4541 10.4001 8.01328 10.4001C7.57246 10.4001 7.21328 10.0409 7.21328 9.60007H5.61328C5.61328 10.6417 6.2843 11.5201 7.21328 11.8515V12.8001H8.81328V11.8531C9.74226 11.5217 10.4133 10.6417 10.4133 9.60007C10.4133 8.27762 9.33573 7.20007 8.01328 7.20007C7.57246 7.20007 7.21328 6.84089 7.21328 6.40007C7.21328 5.95926 7.57246 5.60007 8.01328 5.60007Z" fill="#3398E6"/>
</svg>
