<svg width="17" height="16" viewBox="0 0 17 16" fill="none" xmlns="http://www.w3.org/2000/svg">
<path d="M10.2233 1.86133C10.2233 0.83328 7.93678 6.4608e-09 5.11838 6.4608e-09C2.29828 6.4608e-09 0.0117188 0.83328 0.0117188 1.86133V3.38901C0.0117188 4.41706 2.29828 5.25034 5.11668 5.25034C5.30977 5.25034 5.49947 5.24696 5.68578 5.23849C5.78741 3.91066 7.8758 3.12819 10.2233 2.9368V1.86133Z" fill="#3398E6"/>
<path d="M0.0117188 4.41699V4.55418V6.93885C0.0117188 7.9669 2.29828 8.80018 5.11668 8.80018C5.30638 8.80018 5.49608 8.79679 5.6807 8.78833V6.12928C5.49608 6.13606 5.30808 6.14114 5.11668 6.14114C2.42531 6.14114 0.2065 5.38068 0.0117188 4.41699Z" fill="#3398E6"/>
<path d="M0.0134125 8.01099L0.0117188 8.14987V10.5345C0.0117188 11.5626 2.29828 12.3959 5.11668 12.3959C5.30638 12.3959 5.49608 12.3925 5.6807 12.384V10.416V9.72328C5.49608 9.73174 5.30808 9.73513 5.11668 9.73513C2.42531 9.73513 0.208194 8.97468 0.0134125 8.01099Z" fill="#3398E6"/>
<path d="M11.5051 3.60583C8.685 3.60583 6.39844 4.43912 6.39844 5.46717V6.99485C6.39844 8.0229 8.685 8.85618 11.5051 8.85618C14.3235 8.85618 16.6101 8.02459 16.6101 6.99485V5.46717C16.6101 4.43912 14.3235 3.60583 11.5051 3.60583Z" fill="#3398E6"/>
<path d="M11.5051 9.74697C8.81372 9.74697 6.59491 8.98652 6.40013 8.02283L6.39844 8.16001V10.5447C6.39844 11.5727 8.685 12.406 11.5051 12.406C14.3235 12.4077 16.6101 11.5744 16.6101 10.5464V8.16171C16.6101 8.11428 16.5999 8.07025 16.5914 8.02452C16.3966 8.98652 14.1965 9.74697 11.5051 9.74697Z" fill="#3398E6"/>
<path d="M11.5051 13.341C8.81372 13.341 6.59661 12.5805 6.40182 11.6168L6.39844 11.754V14.1387C6.39844 15.1667 8.685 16 11.5051 16C14.3235 16.0017 16.6101 15.1684 16.6101 14.1404V11.7557C16.6101 11.71 16.5999 11.6625 16.5914 11.6185C16.3966 12.5805 14.1965 13.341 11.5051 13.341Z" fill="#3398E6"/>
</svg>
