<svg width="20" height="19" viewBox="0 0 20 19" fill="none" xmlns="http://www.w3.org/2000/svg">
<path d="M9.51172 19C4.26539 19 0.0117188 14.7463 0.0117188 9.5C0.0117188 4.25367 4.26539 0 9.51172 0C14.758 0 19.0117 4.25367 19.0117 9.5C19.0117 14.7463 14.758 19 9.51172 19ZM9.51172 2.11133C5.4306 2.11133 2.12305 5.41888 2.12305 9.5C2.12305 13.5811 5.4306 16.8887 9.51172 16.8887C13.5928 16.8887 16.9004 13.5811 16.9004 9.5C16.9004 5.41888 13.5928 2.11133 9.51172 2.11133ZM8.45703 10.5547V8.44337V4.22265H10.5684V8.44531H12.6797V10.5566H10.5664L8.45703 10.5547Z" fill="#FD4646"/>
</svg>
