<svg width="20" height="19" viewBox="0 0 20 19" fill="none" xmlns="http://www.w3.org/2000/svg">
<path d="M9.51172 0C4.26539 0 0.0117188 4.25367 0.0117188 9.5C0.0117188 14.7463 4.26539 19 9.51172 19C14.758 19 19.0117 14.7463 19.0117 9.5C19.0117 4.25367 14.758 0 9.51172 0ZM9.51172 17.1C5.32202 17.1 1.91172 13.6897 1.91172 9.5C1.91172 5.30837 5.32202 1.9 9.51172 1.9C13.7034 1.9 17.1117 5.31031 17.1117 9.5C17.1117 13.6916 13.7034 17.1 9.51172 17.1Z" fill="#5C5C5C"/>
<path d="M9.51016 6.65005C10.0336 6.65005 10.4602 7.07658 10.4602 7.60005H12.3602C12.3602 6.36311 11.5633 5.32005 10.4602 4.92454V3.80005H8.56016V4.92454C7.45699 5.31811 6.66016 6.36311 6.66016 7.60005C6.66016 9.17046 7.93975 10.45 9.51016 10.45C10.0336 10.45 10.4602 10.8766 10.4602 11.4C10.4602 11.9235 10.0336 12.35 9.51016 12.35C8.98669 12.35 8.56016 11.9235 8.56016 11.4H6.66016C6.66016 12.637 7.45699 13.68 8.56016 14.0736V15.2H10.4602V14.0756C11.5633 13.682 12.3602 12.637 12.3602 11.4C12.3602 9.82964 11.0806 8.55005 9.51016 8.55005C8.98669 8.55005 8.56016 8.12352 8.56016 7.60005C8.56016 7.07658 8.98669 6.65005 9.51016 6.65005Z" fill="#5C5C5C"/>
</svg>
