<svg width="16" height="19" viewBox="0 0 16 19" fill="none" xmlns="http://www.w3.org/2000/svg">
<path d="M7.51172 0C3.37021 0 0.0117188 3.36105 0.0117188 7.50572C0.0117188 9.19758 0.570209 10.7591 1.51361 12.0129L5.71927 17.6096C6.1287 18.1535 6.77776 18.5047 7.51172 18.5047C8.24379 18.5047 8.89474 18.1535 9.30417 17.6096L13.5098 12.0148C14.4532 10.7591 15.0117 9.19947 15.0117 7.50761C15.0117 3.36105 11.6532 0 7.51172 0ZM7.51172 9.88489C6.19851 9.88489 5.13436 8.81993 5.13436 7.50572C5.13436 6.19151 6.19851 5.12655 7.51172 5.12655C8.82493 5.12655 9.88908 6.19151 9.88908 7.50572C9.88908 8.81993 8.82493 9.88489 7.51172 9.88489Z" fill="#3398E6"/>
</svg>
