<svg width="19" height="19" viewBox="0 0 19 19" fill="none" xmlns="http://www.w3.org/2000/svg">
<path d="M11.6889 2.16051C11.6889 0.983733 9.07153 0.0299072 5.84541 0.0299072C2.61735 0.0299072 0 0.983733 0 2.16051V3.90919C0 5.08596 2.61735 6.03979 5.84347 6.03979C6.06449 6.03979 6.28163 6.03591 6.4949 6.02622C6.61122 4.5063 9.00174 3.61063 11.6889 3.39156V2.16051Z" fill="#E8D315"/>
<path d="M0 5.08594V5.24297V7.97262C0 9.14939 2.61735 10.1032 5.84347 10.1032C6.06061 10.1032 6.27776 10.0993 6.48908 10.0896V7.04593C6.27776 7.05369 6.06255 7.0595 5.84347 7.0595C2.76276 7.0595 0.222959 6.18904 0 5.08594Z" fill="#E8D315"/>
<path d="M0.00193878 9.19983L0 9.3588V12.0884C0 13.2652 2.61735 14.219 5.84347 14.219C6.06061 14.219 6.27776 14.2152 6.48908 14.2055V11.9527V11.1598C6.27776 11.1695 6.06255 11.1734 5.84347 11.1734C2.76276 11.1734 0.224898 10.3029 0.00193878 9.19983Z" fill="#E8D315"/>
<path d="M13.156 4.15735C9.92789 4.15735 7.31055 5.11117 7.31055 6.28795V8.03663C7.31055 9.2134 9.92789 10.1672 13.156 10.1672C16.3821 10.1672 18.9994 9.21534 18.9994 8.03663V6.28795C18.9994 5.11117 16.3821 4.15735 13.156 4.15735Z" fill="#E8D315"/>
<path d="M13.156 11.1869C10.0752 11.1869 7.53545 10.3165 7.31249 9.21338L7.31055 9.37041V12.1001C7.31055 13.2768 9.92789 14.2307 13.156 14.2307C16.3821 14.2326 18.9994 13.2788 18.9994 12.102V9.37235C18.9994 9.31807 18.9878 9.26766 18.9781 9.21532C18.7551 10.3165 16.2367 11.1869 13.156 11.1869Z" fill="#E8D315"/>
<path d="M13.156 15.3008C10.0752 15.3008 7.53738 14.4304 7.31442 13.3273L7.31055 13.4843V16.214C7.31055 17.3907 9.92789 18.3446 13.156 18.3446C16.3821 18.3465 18.9994 17.3927 18.9994 16.2159V13.4862C18.9994 13.4339 18.9878 13.3796 18.9781 13.3292C18.7551 14.4304 16.2367 15.3008 13.156 15.3008Z" fill="#E8D315"/>
</svg>
