<svg width="19" height="20" viewBox="0 0 19 20" fill="none" xmlns="http://www.w3.org/2000/svg">
<path d="M3.91245 17.1962C3.91245 17.7643 3.71857 18.2126 3.32888 18.5391C2.93918 18.8657 2.45837 19.0299 1.88061 19.0299C1.12449 19.0299 0.511837 18.7961 0.0407143 18.3266L0.64949 17.3894C0.998469 17.7082 1.37653 17.8686 1.78367 17.8686C1.99112 17.8686 2.16949 17.8164 2.32459 17.714C2.47776 17.6116 2.55531 17.4609 2.55531 17.2619C2.55531 16.8078 2.18112 16.6088 1.43276 16.6648L1.15551 16.0677C1.21173 15.9962 1.32806 15.8417 1.50255 15.604C1.67704 15.3663 1.82827 15.175 1.95622 15.0282C2.08418 14.8833 2.21602 14.7461 2.35173 14.6185V14.6069C2.23735 14.6069 2.0648 14.6108 1.83408 14.6185C1.60337 14.6263 1.42888 14.6301 1.31643 14.6301V15.1944H0.182245V13.5751H3.74184V14.5123L2.72592 15.7373C3.09041 15.8223 3.37735 15.9962 3.59255 16.259C3.80776 16.5218 3.91245 16.8329 3.91245 17.1962ZM3.93378 10.5144V12.209H0.0639796C0.0213265 11.9539 0 11.7607 0 11.6332C0 11.2699 0.0833674 10.9414 0.252041 10.6419C0.420714 10.3424 0.620408 10.1028 0.856939 9.91733C1.09153 9.73183 1.32806 9.56372 1.56265 9.41107C1.79724 9.25842 1.99888 9.10384 2.16755 8.94733C2.33429 8.79081 2.41959 8.63044 2.41959 8.46813C2.41959 8.29036 2.36724 8.15317 2.26449 8.05849C2.16173 7.96187 2.0202 7.9155 1.84184 7.9155C1.51418 7.9155 1.22531 8.12225 0.975204 8.53382L0.0659184 7.90584C0.236531 7.54257 0.492449 7.26046 0.829796 7.0595C1.16908 6.85661 1.5452 6.75614 1.95816 6.75614C2.47776 6.75614 2.91786 6.90299 3.27265 7.19863C3.62939 7.49426 3.80775 7.89231 3.80775 8.39663C3.80775 8.75217 3.68561 9.07679 3.44327 9.37243C3.20092 9.66807 2.93337 9.89607 2.64061 10.0603C2.34786 10.2246 2.07837 10.4023 1.83408 10.5994C1.58786 10.7946 1.46184 10.982 1.45408 11.1598H2.81122V10.5144H3.93378ZM19 13.9133V15.9595C19 16.0523 18.967 16.1315 18.8992 16.1991C18.8313 16.2668 18.7518 16.2996 18.6588 16.2996H5.65541C5.56235 16.2996 5.48286 16.2668 5.415 16.1991C5.34714 16.1315 5.31418 16.0523 5.31418 15.9595V13.9133C5.31418 13.8147 5.34714 13.7316 5.41112 13.6679C5.4751 13.6041 5.55653 13.5712 5.65735 13.5712H18.6588C18.7518 13.5712 18.8313 13.6041 18.8992 13.6717C18.967 13.7413 19 13.8224 19 13.9133ZM3.94541 4.33307V5.38809H0.36449V4.33307H1.50837C1.50837 4.0413 1.51031 3.60847 1.51418 3.03265C1.51806 2.45684 1.52 2.02787 1.52 1.74383V1.6163H1.49867C1.44245 1.73803 1.26408 1.92933 0.963571 2.19212L0.203571 1.3825L1.65765 0.0299072H2.79184V4.335H3.94541V4.33307ZM19 8.45846V10.5047C19 10.5975 18.967 10.6767 18.8992 10.7443C18.8313 10.812 18.7518 10.8448 18.6588 10.8448H5.65541C5.56235 10.8448 5.48286 10.812 5.415 10.7443C5.34714 10.6767 5.31418 10.5975 5.31418 10.5047V8.45846C5.31418 8.35992 5.34714 8.27683 5.41112 8.21307C5.4751 8.1493 5.55653 8.11645 5.65735 8.11645H18.6588C18.7518 8.11645 18.8313 8.1493 18.8992 8.21693C18.967 8.28649 19 8.36572 19 8.45846ZM19 3.00174V5.04801C19 5.14076 18.967 5.21998 18.8992 5.28761C18.8313 5.35524 18.7518 5.38809 18.6588 5.38809H5.65541C5.56235 5.38809 5.48286 5.35524 5.415 5.28761C5.34714 5.21998 5.31418 5.14076 5.31418 5.04801V3.00174C5.31418 2.90899 5.34714 2.82977 5.415 2.76214C5.48286 2.69451 5.56235 2.66166 5.65541 2.66166H18.6568C18.7499 2.66166 18.8294 2.69451 18.8972 2.76214C18.967 2.82977 19 2.90899 19 3.00174Z" fill="black"/>
</svg>
