<svg width="18" height="22" viewBox="0 0 18 22" fill="none" xmlns="http://www.w3.org/2000/svg">
<path d="M17.2424 18.2836C17.1475 17.7483 16.8832 17.1951 16.4057 16.5508C15.4862 15.3106 14.0007 14.1095 13.142 13.9124L12.877 13.8525L11.9881 14.5475L11.0993 15.2424L10.6622 15.1563C9.60529 14.9486 8.79802 14.3089 7.47695 12.6199C5.81368 10.503 4.7794 8.49741 4.91263 7.64833L4.94439 7.46529L5.62668 7.14997C6.51562 6.73684 6.79081 6.57513 6.93936 6.37062C7.33623 5.82011 7.29109 4.70112 6.80674 3.17452C6.44092 2.02638 5.9832 1.25177 5.44899 0.876966L5.17249 0.68627L4.57549 0.595484C3.61433 0.453244 3.02812 0.548048 2.5633 0.927818C2.28586 1.15586 1.72748 1.76399 1.42249 2.17199C0.87115 2.91434 0.324286 3.93545 0.202374 4.45346L0.139545 4.73768L0.365827 5.43787C0.888744 7.07192 1.57026 8.66753 2.40637 10.2239C3.28774 11.8695 4.11718 13.0842 5.43038 14.6702C7.99864 17.7629 10.3875 19.9745 12.1341 20.8745C12.4323 21.0255 12.4392 21.0305 12.7005 21.0116C13.1634 20.9802 14.1144 20.8036 14.5663 20.6648C15.2273 20.4638 15.7315 20.2116 16.2567 19.8216C17.0649 19.2198 17.3314 18.8062 17.2424 18.2836Z" fill="black"/>
</svg>
