<svg width="48" height="46" viewBox="0 0 48 46" fill="none" xmlns="http://www.w3.org/2000/svg">
<g filter="url(#filter0_d)">
<path d="M45 23C45 34.0457 36.0457 43 25 43C13.9543 43 5 34.0457 5 23C5 11.9543 13.9543 3 25 3C36.0457 3 45 11.9543 45 23Z" fill="url(#paint0_linear)"/>
<path d="M5.13333 43H25L11.1333 37.4L5.13333 43Z" fill="url(#paint1_linear)"/>
<path d="M4.79217 42.6345L3.86482 43.5H5.13333H25C36.3218 43.5 45.5 34.3218 45.5 23C45.5 11.6782 36.3218 2.5 25 2.5C13.6782 2.5 4.5 11.6782 4.5 23C4.5 28.6103 6.75366 33.6942 10.4051 37.3958L4.79217 42.6345Z" stroke="white"/>
</g>
<g filter="url(#filter1_d)">
<path d="M33.8727 20.3311H33.8723L31.0358 15.5927H31.0355H25.0443H18.9468L16.1094 20.3311L25.1091 30.4075L33.8635 20.3576H33.8872L33.8727 20.3311Z" fill="#A8B6C0"/>
<path d="M20.5783 20.037H16.1094L24.9983 30.4074L20.5783 20.037Z" fill="#C8DAEA"/>
<path d="M33.8742 20.037H33.8739H29.4037L25 30.4074L33.865 20.0643H33.8889L33.8742 20.037Z" fill="#C8DAEA"/>
<path d="M29.4414 20.0371H33.8859L31.0301 15.5927H31.0298L29.4414 20.0371Z" fill="#EFF7FC"/>
<path d="M29.4436 20.0371L24.9975 15.5927L20.5547 20.0371H29.4436Z" fill="url(#paint2_linear)"/>
<path d="M20.5538 20.0371L18.8965 15.5927L16.1094 20.0371H20.5538Z" fill="url(#paint3_linear)"/>
<path d="M20.5547 20.037L25.0628 30.4074L29.4436 20.037H20.5547Z" fill="url(#paint4_linear)"/>
<path d="M25.0001 15.5927H19.0742L20.714 20.0371L25.0001 15.5927Z" fill="#DAE7F2"/>
<path d="M30.9259 15.5927H25L29.3654 20.0371L30.9259 15.5927Z" fill="#DAE7F2"/>
</g>
<defs>
<filter id="filter0_d" x="0.595703" y="0" width="47.4037" height="46" filterUnits="userSpaceOnUse" color-interpolation-filters="sRGB">
<feFlood flood-opacity="0" result="BackgroundImageFix"/>
<feColorMatrix in="SourceAlpha" type="matrix" values="0 0 0 0 0 0 0 0 0 0 0 0 0 0 0 0 0 0 127 0"/>
<feOffset/>
<feGaussianBlur stdDeviation="1"/>
<feColorMatrix type="matrix" values="0 0 0 0 0 0 0 0 0 0 0 0 0 0 0 0 0 0 0.25 0"/>
<feBlend mode="normal" in2="BackgroundImageFix" result="effect1_dropShadow"/>
<feBlend mode="normal" in="SourceGraphic" in2="effect1_dropShadow" result="shape"/>
</filter>
<filter id="filter1_d" x="12.1094" y="15.5927" width="25.7795" height="22.8148" filterUnits="userSpaceOnUse" color-interpolation-filters="sRGB">
<feFlood flood-opacity="0" result="BackgroundImageFix"/>
<feColorMatrix in="SourceAlpha" type="matrix" values="0 0 0 0 0 0 0 0 0 0 0 0 0 0 0 0 0 0 127 0"/>
<feOffset dy="4"/>
<feGaussianBlur stdDeviation="2"/>
<feColorMatrix type="matrix" values="0 0 0 0 0 0 0 0 0 0 0 0 0 0 0 0 0 0 0.25 0"/>
<feBlend mode="normal" in2="BackgroundImageFix" result="effect1_dropShadow"/>
<feBlend mode="normal" in="SourceGraphic" in2="effect1_dropShadow" result="shape"/>
</filter>
<linearGradient id="paint0_linear" x1="25" y1="3" x2="25" y2="43" gradientUnits="userSpaceOnUse">
<stop stop-color="#68B1E4"/>
<stop offset="1" stop-color="#2480C1"/>
</linearGradient>
<linearGradient id="paint1_linear" x1="25" y1="3" x2="25" y2="43" gradientUnits="userSpaceOnUse">
<stop stop-color="#68B1E4"/>
<stop offset="1" stop-color="#2480C1"/>
</linearGradient>
<linearGradient id="paint2_linear" x1="24.9991" y1="15.5927" x2="24.9991" y2="20.0371" gradientUnits="userSpaceOnUse">
<stop stop-color="#EFF7FC"/>
<stop offset="1" stop-color="white"/>
</linearGradient>
<linearGradient id="paint3_linear" x1="18.3316" y1="15.5927" x2="18.3316" y2="20.0371" gradientUnits="userSpaceOnUse">
<stop stop-color="#EFF7FC"/>
<stop offset="1" stop-color="white"/>
</linearGradient>
<linearGradient id="paint4_linear" x1="24.9991" y1="20.037" x2="24.9991" y2="30.4074" gradientUnits="userSpaceOnUse">
<stop stop-color="#EFF7FC"/>
<stop offset="1" stop-color="white"/>
</linearGradient>
</defs>
</svg>
